<svg xmlns="http://www.w3.org/2000/svg" viewBox="0 0 100 100">
  <rect width="100" height="100" fill="#1c1b1b"/>
  <!-- Luxury hanger shape -->
  <path d="M25 65 C 25 65, 50 45, 50 45 C 50 45, 75 65, 75 65 Z" fill="none" stroke="#f1edec" stroke-width="4" stroke-linecap="square"/>
  <path d="M50 45 C 50 45, 50 35, 55 35 C 60 35, 57 41, 51 43" fill="none" stroke="#f1edec" stroke-width="4"/>
  <!-- Minimalist AI Sparkles -->
  <path d="M72 25 L73.5 32 L80.5 33.5 L73.5 35 L72 42 L70.5 35 L63.5 33.5 L70.5 32 Z" fill="#e1e1c9"/>
  <path d="M25 25 L26 30 L31 31 L26 32 L25 37 L24 32 L19 31 L24 30 Z" fill="#e1e1c9"/>
</svg>
